<svg width="165" height="50" viewBox="0 0 165 50" fill="none" xmlns="http://www.w3.org/2000/svg">
<path d="M92.2419 50C87.3537 50 82.9309 48.9292 78.9738 46.7877C75.0631 44.5996 71.9905 41.6201 69.7559 37.8492C67.5213 34.0317 66.4039 29.7486 66.4039 25C66.4039 20.2514 67.5213 15.9916 69.7559 12.2207C71.9905 8.40316 75.0864 5.42365 79.0436 3.28212C83.0008 1.09404 87.4235 0 92.3118 0C96.1293 0 99.6209 0.651769 102.787 1.95531C105.952 3.21229 108.653 5.09776 110.887 7.61173L106.348 12.0112C102.67 8.14711 98.0846 6.21508 92.5911 6.21508C88.9598 6.21508 85.6777 7.02979 82.7447 8.65922C79.8118 10.2886 77.5073 12.5466 75.8313 15.433C74.2019 18.2728 73.3872 21.4618 73.3872 25C73.3872 28.5382 74.2019 31.7505 75.8313 34.6369C77.5073 37.4767 79.8118 39.7114 82.7447 41.3408C85.6777 42.9702 88.9598 43.7849 92.5911 43.7849C98.038 43.7849 102.624 41.8296 106.348 37.919L110.887 42.3184C108.653 44.8324 105.929 46.7412 102.717 48.0447C99.551 49.3482 96.0594 50 92.2419 50Z" fill="#12263A"/>
<path d="M17.7375 34.765V37.8027H0V13.3613H17.2486V16.399H3.49163V23.906H15.7472V26.8739H3.49163V34.765H17.7375ZM23.3912 13.3613H26.8828V34.765H40.1161V37.8027H23.3912V13.3613ZM61.8601 34.765V37.8027H44.1227V13.3613H61.3713V16.399H47.6143V23.906H59.8699V26.8739H47.6143V34.765H61.8601Z" fill="#12263A"/>
<path d="M114.597 13.3613H118.089V37.8027H114.597V13.3613ZM130.26 16.399H121.88V13.3613H142.096V16.399H133.716V37.8027H130.26V16.399ZM154.984 29.3529V37.8027H151.527V29.2831L141.82 13.3613H145.556L153.378 26.2454L161.234 13.3613H164.69L154.984 29.3529Z" fill="#12263A"/>
<path d="M91.9348 33.465C96.6292 33.465 100.435 29.6594 100.435 24.965C100.435 20.2705 96.6292 16.465 91.9348 16.465C87.2404 16.465 83.4348 20.2705 83.4348 24.965C83.4348 29.6594 87.2404 33.465 91.9348 33.465Z" fill="#35DDF0"/>
</svg>