<svg width="200" height="220" viewBox="0 0 200 220" fill="none" xmlns="http://www.w3.org/2000/svg">
<path fill-rule="evenodd" clip-rule="evenodd" d="M95.5195 217.424C67.5563 204.417 43.2693 183.101 27.1288 157.41C11.0273 131.794 2.56527 102.125 0.494976 64.0339C-0.1644 51.8815 -0.1644 36.723 0.491431 17.7003L0.789213 9.01856L9.35755 7.58282C39.508 2.55242 70.0059 0 100 0C129.995 0 160.489 2.55242 190.636 7.58282L199.205 9.01856L199.506 17.7003C200.165 36.7265 200.165 51.8851 199.502 64.0339C197.429 102.125 188.97 131.794 172.869 157.41C156.732 183.101 132.437 204.417 104.478 217.424L100 219.505L95.5195 217.424Z" fill="black"/>
<path fill-rule="evenodd" clip-rule="evenodd" d="M100 6.25879C69.7624 6.25879 38.3752 8.83163 6.51875 14.3103C6.04315 27.0357 5.50104 46.7054 6.41172 63.3967C8.43994 100.611 16.6614 129.496 32.2858 154.3C47.8632 179.032 71.9868 200.297 100 212.927C128.013 200.297 152.135 179.032 167.712 154.3C183.339 129.496 191.557 100.611 193.588 63.3967C194.494 46.7054 193.955 27.0357 193.479 14.3103C161.623 8.83163 130.238 6.25879 100 6.25879ZM100 9.84392C129.807 9.84392 160.073 12.3698 189.995 17.3548C190.652 36.2333 190.651 51.2541 189.999 63.2029C188.005 99.7834 179.958 128.126 164.671 152.394C149.386 176.659 126.463 196.704 100 208.985C73.5352 196.704 50.6147 176.659 35.3295 152.394C20.0421 128.126 11.9935 99.7834 10.0015 63.2029C9.34892 51.2541 9.34856 36.2333 10.0054 17.3548C39.9276 12.3698 70.1911 9.84392 100 9.84392Z" fill="white"/>
<path fill-rule="evenodd" clip-rule="evenodd" d="M37.4615 26.9198C37.168 26.9126 36.8554 26.9264 36.5248 26.9604C32.0973 27.4221 27.6761 27.9303 23.2593 28.4878V41.5322C24.0249 41.4344 24.7928 41.3407 25.5585 41.2471V37.2112C29.2097 36.7644 32.8672 36.3514 36.5248 35.9706C39.1694 35.6961 40.6474 34.5923 40.6474 31.8604V30.3839C40.6474 28.0475 39.5161 26.9702 37.4615 26.9198ZM37.2076 28.994C37.8027 28.9323 38.3998 29.3837 38.3998 29.9815V32.6237C38.3998 33.1918 37.8027 33.7349 37.2076 33.7987C33.3218 34.1966 29.4379 34.6349 25.5585 35.1073V30.305C29.4379 29.8305 33.3218 29.394 37.2076 28.994Z" fill="white"/>
<path fill-rule="evenodd" clip-rule="evenodd" d="M95.7575 23.685C99.8972 23.6552 104.037 23.6701 108.174 23.7254V25.8275C103.751 25.7701 99.3256 25.7573 94.9002 25.7935C94.3009 25.7999 93.7016 26.3169 93.7016 26.9147V33.4508C93.7016 34.0487 94.3009 34.6402 94.9002 34.6338C98.8692 34.5998 102.836 34.6061 106.805 34.6508V31.1253C104.502 31.0998 102.198 31.0871 99.8972 31.0892V28.9849C102.951 28.9849 106.005 29.0083 109.059 29.053V36.7827C104.768 36.7189 100.477 36.7019 96.1862 36.7274C93.0447 36.7487 91.4473 36.2083 91.4473 33.1658V27.4807C91.4473 24.6403 92.8741 23.7063 95.7575 23.685V23.685Z" fill="white"/>
<path fill-rule="evenodd" clip-rule="evenodd" d="M140.59 25.0489C138.116 25.0559 137.003 25.8367 137.003 28.3965V34.2215C137.003 37.3214 138.6 37.9264 141.735 38.1371C144.614 38.3328 147.489 38.5493 150.366 38.7855C153.469 39.0408 155.093 38.5129 155.093 35.5832V29.7582C155.093 26.7731 153.213 25.9751 150.366 25.7411C147.489 25.5028 144.614 25.2882 141.735 25.0903C141.325 25.0626 140.944 25.0479 140.59 25.0489ZM140.454 27.109C144.188 27.3537 147.918 27.6347 151.648 27.9496C152.245 28.0007 152.843 28.5641 152.843 29.2449V35.6988C152.843 36.2945 152.245 36.8413 151.648 36.7902C147.918 36.4753 144.188 36.194 140.454 35.9472C139.769 35.9004 139.254 35.2732 139.254 34.6754V28.2239C139.254 27.5409 139.769 27.0622 140.454 27.109Z" fill="white"/>
<path fill-rule="evenodd" clip-rule="evenodd" d="M85.7982 23.835V33.271C85.7982 36.2561 84.2263 36.9114 81.0592 37.0093C78.3016 37.0944 75.544 37.1965 72.7864 37.3199C69.8475 37.4518 68.0518 36.8944 68.0518 33.9391V24.503L70.3039 24.3882V34.2221C70.3039 34.82 70.8179 35.3072 71.5004 35.2753C75.1153 35.1072 78.7282 34.971 82.3431 34.8668C83.0299 34.8476 83.4863 34.3242 83.4863 33.7264V23.8924C84.2562 23.8711 85.0261 23.852 85.7982 23.835V23.835Z" fill="white"/>
<path fill-rule="evenodd" clip-rule="evenodd" d="M114.696 23.8457C120.25 23.9776 125.801 24.1861 131.353 24.4712V26.5733C126.554 26.3287 121.753 26.1393 116.951 26.0074V29.218C121.222 29.3372 125.492 29.4989 129.76 29.7052V31.8095C125.492 31.6031 121.222 31.4393 116.951 31.3222V34.8456C121.753 34.9775 126.554 35.1669 131.353 35.4137V37.5158C125.801 37.2328 120.25 37.0243 114.696 36.8903V23.8457Z" fill="white"/>
<path fill-rule="evenodd" clip-rule="evenodd" d="M62.402 24.8232V26.9253C57.6055 27.2211 52.8111 27.5722 48.021 27.9785V31.1913C52.2822 30.8274 56.5455 30.5104 60.811 30.2381V32.3423C56.5455 32.6147 52.2822 32.9317 48.021 33.2934V36.8189C52.8111 36.4104 57.6055 36.0593 62.402 35.7657V37.8678C56.8548 38.2082 51.3118 38.6252 45.771 39.1167V26.07C51.3118 25.5786 56.8548 25.1637 62.402 24.8232Z" fill="white"/>
<path fill-rule="evenodd" clip-rule="evenodd" d="M159.266 26.5371C165.097 27.1031 170.924 27.7541 176.74 28.486V30.5903C174.225 30.2732 171.706 29.9711 169.185 29.686V40.6285C168.42 40.5412 167.654 40.4561 166.884 40.371V29.4286C164.348 29.1498 161.806 28.8881 159.266 28.6413V26.5371Z" fill="white"/>
<path fill-rule="evenodd" clip-rule="evenodd" d="M82.1172 51.5005C92.8234 50.5622 107.311 50.3069 121.15 51.3516C121.937 51.4112 122.703 51.5963 123.43 51.9027C127.964 53.8048 136.009 57.9664 144.954 63.0706C145.348 63.2962 145.719 63.56 146.06 63.86C148.43 65.943 154.434 72.0706 154.434 72.0706L152.561 71.7004C152.299 71.6493 152.053 71.5472 151.832 71.3982C148.044 68.86 142.514 65.5557 137.879 63.226C137.329 62.9515 136.734 62.7749 136.122 62.7111C133.868 62.4706 130.82 62.26 128.826 62.1792C127.843 62.1387 127.173 61.9749 126.211 61.4877C124.373 60.5579 119.92 58.543 117.702 57.6984C116.753 57.3367 116.268 57.2515 115.339 57.2664C111.527 57.3218 102.845 57.5984 98.4112 57.8728C98.2576 57.8813 98.1105 57.8748 97.9612 57.8515L95.8476 57.5217C101.841 56.4919 116.654 55.1749 122.786 54.8537L120.291 54.0217C119.809 53.8622 119.308 53.7771 118.798 53.7643C117.467 53.7327 114.507 53.6737 110.664 53.6685L109.352 53.6689C103.532 53.6801 96.0441 53.8226 89.1381 54.3409C88.5345 54.3856 87.9459 54.5302 87.3914 54.7749C84.6018 55.9972 77.7993 59.6766 70.9771 63.4559L69.4623 64.2964C67.6985 65.2767 65.9533 66.252 64.2961 67.1812C64.2961 67.1812 65.1471 66.0897 65.3113 65.8769C65.4563 65.6918 65.5011 65.6578 65.6973 65.5301C65.9715 65.3509 66.9074 64.7358 67.851 64.1118L68.55 63.6487C69.1166 63.2725 69.6223 62.9344 69.9073 62.7387C70.0481 62.6429 70.1377 62.5749 70.3147 62.4429C72.3685 60.8983 75.6102 58.1749 77.5425 56.4877C77.9797 56.1068 78.3508 55.6643 78.6558 55.1707C79.2806 54.1622 79.9631 53.0686 80.3833 52.4622C80.7416 51.9366 81.3537 51.5686 82.1172 51.5005V51.5005Z" fill="white"/>
<path fill-rule="evenodd" clip-rule="evenodd" d="M87.3038 61.8203C87.549 61.8183 87.7026 62.082 87.581 62.2927L82.407 71.1798C82.1191 71.7032 81.6371 72.0926 81.0655 72.2649L71.3638 75.2926C70.2377 75.633 69.2865 75.816 68.1135 75.9053C65.9616 76.067 59.5698 76.267 59.5698 76.267L59.7106 75.9649C59.7767 75.8224 59.894 75.7096 60.039 75.6479L63.0632 74.3671C63.2893 74.2713 63.4876 74.1245 63.6391 73.9351L68.3097 68.199C68.5592 67.8926 68.8856 67.599 69.2332 67.416C72.3192 65.7969 77.8067 63.365 81.6499 62.0842C82.0125 61.9629 82.5009 61.8863 82.8826 61.882L87.3038 61.8203Z" fill="white"/>
<path fill-rule="evenodd" clip-rule="evenodd" d="M63.1579 77.7878C63.3605 77.7708 63.5524 77.8836 63.6314 78.0687C63.8979 78.6878 63.8254 79.3793 63.5674 79.9708C63.4672 80.2112 63.1579 80.4452 62.9041 80.5005L60.7821 80.9707C60.6541 80.9984 60.5368 80.8963 60.5454 80.7665L60.7437 78.2814C60.7587 78.1133 60.8908 77.9793 61.0593 77.9665L63.1579 77.7878Z" fill="white"/>
<path fill-rule="evenodd" clip-rule="evenodd" d="M110.217 67.2946C110.535 67.2393 110.861 67.2839 111.153 67.4222L113.369 68.4797C113.587 68.5839 113.747 68.7818 113.804 69.0201C114.105 70.2839 114.474 71.9584 114.721 73.3817C114.822 73.9732 114.711 74.5775 114.41 75.0988C113.493 76.6881 111.61 79.5476 110.556 81.0838C110.321 81.4285 110.294 81.8455 110.366 82.2561C110.844 84.8901 112.836 94.0879 112.836 94.0879L111.582 92.9496C111.332 92.7199 111.168 92.4773 111.062 92.1603C110.17 89.5582 108.502 84.1221 107.735 81.4774C107.611 81.0412 107.705 80.5753 107.993 80.2285C109.3 78.6455 111.204 76.1136 112.318 74.5094C112.629 74.0583 112.731 73.5605 112.548 73.1881C112.292 72.6647 111.861 71.869 111.448 71.1477C111.337 70.9477 111.151 70.7988 110.931 70.7265L109.428 70.2456C109.166 70.1626 108.884 70.1669 108.624 70.2605C105.348 71.4456 100.942 73.1541 98.246 74.269C97.8515 74.4328 97.6894 74.4456 97.2117 74.3732C96.4311 74.2584 94.1576 73.852 93.0422 73.6435C92.8417 73.6052 92.7415 73.3796 92.8439 73.203L94.1661 70.918C94.3453 70.6095 94.6417 70.3903 94.9915 70.3116C99.2441 69.3456 104.868 68.235 110.217 67.2946V67.2946Z" fill="white"/>
<path fill-rule="evenodd" clip-rule="evenodd" d="M63.9792 69.6885L63.109 70.7566C63.06 70.8034 63.013 70.8481 62.964 70.897C62.1983 71.4608 58.9758 73.9225 58.1035 74.6118C57.8561 74.8076 57.758 74.9778 57.7004 75.2863C57.5042 76.3757 57.1779 78.4458 57.0819 79.5926C57.0542 79.9288 56.9092 80.0948 56.5658 80.2331C55.0708 80.8394 53.2985 81.4777 51.8653 82.0501C51.5582 82.1713 51.4729 82.2181 51.2916 82.3564C51.1487 82.4671 49.2442 84.1628 49.2442 84.1628C49.2442 84.1628 53.3838 83.1458 54.9023 82.8032C55.2648 82.7224 55.4205 82.7437 55.7554 82.9011C56.0689 83.0458 56.5914 83.2522 56.8665 83.3522C57.2888 83.5075 57.5127 83.5011 57.9798 83.399C59.6902 83.0181 62.5673 82.3373 64.0986 81.9394C64.8941 81.733 65.3292 81.5182 66.0031 81.048C66.7368 80.5394 68.5944 79.1501 68.5944 79.1501C68.5944 79.1501 68.5602 79.3948 68.5346 79.5309C68.5154 79.648 68.4728 79.7139 68.396 79.8054C68.0185 80.2586 67.3574 80.9969 67.029 81.3352C66.2761 82.1118 65.8261 82.3884 64.8813 82.782C60.5305 84.5905 53.0959 87.3989 47.5188 89.3245C47.1541 89.4521 46.9963 89.5564 46.7254 89.833C46.4311 90.1308 46.0387 90.5649 46.0387 90.5649C46.0387 90.5649 50.5857 90.8947 51.9741 91.0542C52.4241 91.1053 52.7461 91.2521 53.0895 91.5478C54.2305 92.5266 58.0075 96.4052 59.1379 97.752C59.1379 97.752 48.3996 99.5329 43.424 100.765C42.8097 100.916 42.5026 101.305 42.364 101.797C41.9524 103.239 40.982 107.877 40.982 107.877C40.982 107.877 40.6365 107.767 40.1545 107.49C39.8239 107.301 39.6554 107.143 39.2929 106.76C38.1156 105.52 36.1812 103.146 35.2514 101.769C34.9784 101.363 34.8632 100.846 35.2045 100.431C36.2132 99.1924 38.2393 96.9329 39.3569 95.7712C39.4763 95.6457 39.6277 95.4265 39.7877 95.1116C40.1637 94.3666 40.6594 92.4796 40.8321 91.7981L40.8872 91.5778L40.8945 91.5478C40.8945 91.5478 40.8838 91.5544 40.8646 91.5666L40.6605 91.6946C40.3838 91.8681 39.9369 92.1485 39.745 92.2691C39.4571 92.4521 39.3781 92.5308 39.2587 92.7818C39.0774 93.1606 38.7597 93.7584 38.5187 94.1733C38.4397 94.3095 38.2286 94.5201 38.1156 94.6073C36.6888 95.6946 35.1127 96.8626 33.9909 97.6499C33.9141 97.7031 33.816 97.6797 33.7499 97.6158C33.607 97.4733 33.0077 96.7946 32.9011 96.635C32.8115 96.5009 32.7709 96.3754 32.7709 96.2137C32.7689 95.9307 32.7966 95.4329 32.8243 95.0627C32.8584 94.6244 32.9842 94.4159 33.5196 93.8627C34.1188 93.2435 34.7715 92.5925 35.4582 91.9244C37.1409 90.5116 41.3893 87.0734 48.9754 81.6734C49.1183 81.5713 49.2484 81.4522 49.3529 81.3096C50.1505 80.2373 52.4133 77.3097 52.9721 76.6139C53.051 76.5161 53.1385 76.4246 53.2387 76.3458C54.1323 75.6416 54.5738 75.3373 55.4802 74.7671C57.5937 73.4395 61.6864 71.0182 63.9791 69.6885L63.9792 69.6885Z" fill="white"/>
<path fill-rule="evenodd" clip-rule="evenodd" d="M46.8279 106.176L45.8917 112.62L42.7075 108.893C43.2876 107.64 44.9831 106.457 46.8279 106.176Z" fill="white"/>
<path fill-rule="evenodd" clip-rule="evenodd" d="M67.799 109.595C66.2122 112.199 64.3163 114.965 62.8831 116.693C62.6954 116.918 62.4459 117.093 62.1622 117.199C60.5947 117.784 57.9821 118.665 56.0583 119.25L67.799 109.595Z" fill="white"/>
<path fill-rule="evenodd" clip-rule="evenodd" d="M135.492 67.753C136.332 67.4445 137.254 67.4658 138.079 67.8126C144.481 70.4934 155.247 76.7997 161.232 81.2423C161.81 81.672 162.04 81.9678 162.192 82.6614C163.597 89.0358 164.13 98.8889 163.245 107.185C163.181 107.78 163.062 108.138 162.75 108.774C158.958 116.508 154.691 123.787 150.199 129.401L150.208 129.31C150.267 128.712 150.589 125.34 150.607 123.516C150.609 123.31 150.705 123.121 150.869 122.995C151.703 122.348 152.848 121.429 153.496 120.87C153.812 120.597 153.987 120.393 154.151 120.129C155.981 117.18 159.253 111.006 160.571 107.291C160.893 106.385 161.021 105.425 160.942 104.465C160.519 99.2889 159.705 92.1166 158.491 87.4358C158.284 86.638 157.755 85.9635 157.02 85.5869C155.972 85.0507 153.919 84.1167 149.242 82.2465C148.593 81.9869 147.988 81.6274 147.454 81.1806C144.388 78.6104 139.593 74.7572 136.61 72.5402C135.737 71.8913 134.624 71.6551 133.562 71.8955C131.389 72.387 128.622 73.0721 127.066 73.4934C126.537 73.636 126.328 73.6487 125.782 73.5849C125.497 73.552 125.13 73.516 124.744 73.481L124.159 73.4297C123.479 73.3718 122.841 73.3228 122.591 73.3039L122.48 73.2956C127.554 70.919 132.436 68.8679 135.492 67.7531L135.492 67.753Z" fill="white"/>
<path fill-rule="evenodd" clip-rule="evenodd" d="M59.9495 100.454C60.4528 100.292 60.9881 100.273 61.5 100.397C63.8076 100.95 68.6915 102.143 72.3833 103.086C72.9015 103.218 73.5477 103.701 73.8228 104.158L74.6269 105.492C74.9084 105.96 74.9276 106.535 74.6781 107.02C74.007 108.318 73.0499 110.075 72.038 111.886L71.2725 113.249C69.8634 115.743 68.4601 118.149 67.6635 119.415C67.1389 120.252 66.8467 120.622 65.9126 120.952C62.2805 122.226 57.7698 123.749 55.089 124.615C54.5409 124.792 54.3554 125.124 54.462 125.73C54.6539 126.835 55.2724 130.583 55.5091 131.677C55.5966 132.081 55.9208 132.403 56.5222 132.288C58.1068 131.988 62.3253 130.958 62.3253 130.958C62.3253 130.958 61.082 132.105 60.3376 132.781C60.2011 132.909 60.0433 133.003 59.8663 133.06C58.7168 133.443 55.9101 134.228 55.0357 134.42C54.3532 134.566 53.9181 134.298 53.7433 133.528C53.7433 133.528 52.5468 128.447 52.1139 126.72C52.0456 126.456 51.9774 126.228 51.8942 125.969C51.57 124.969 50.7916 123.003 50.3522 121.973C50.301 121.854 50.2754 121.726 50.2775 121.594C50.2903 120.418 50.5079 117.792 50.5079 117.792C50.5079 117.792 53.0906 120.207 54.3404 121.079C54.6219 121.277 54.7904 121.318 55.1359 121.23C56.8528 120.79 60.8004 119.488 62.9673 118.679C63.4621 118.494 63.895 118.184 64.232 117.777C66.4735 115.077 69.2844 110.877 70.9074 107.709C71.1313 107.273 71.174 106.773 71.0332 106.305L70.6835 105.156C70.5811 104.82 70.2249 104.441 69.8965 104.316C66.0768 102.867 63.0654 101.79 59.5272 100.588L59.9495 100.454Z" fill="white"/>
<path fill-rule="evenodd" clip-rule="evenodd" d="M128.393 87.459L129.713 88.0313C130.104 88.1994 130.46 88.4462 130.754 88.7526C138.848 97.178 145.321 105.914 146.617 108.216C146.867 108.659 147.038 109.101 147.099 109.608C148.554 121.895 147.304 134.912 144.333 146.235C144.065 147.256 143.764 147.78 142.779 148.518C139.607 150.898 134.872 154.692 130.164 158.56L128.679 159.783C123.008 164.467 117.619 169.053 115.333 171.162C114.759 171.694 114.258 172.294 113.848 172.96C112.776 174.699 111.139 177.69 110.335 179.175L110.11 179.59C109.949 179.89 109.856 180.064 109.856 180.064C108.789 177.743 106.465 172.079 105.667 169.79C105.407 169.043 105.36 168.652 105.635 167.652C106.936 162.905 113.085 149.105 114.281 146.609L114.283 147.631C114.283 147.78 114.26 147.926 114.213 148.067C113.673 149.699 110.367 160.575 109.696 165.292C109.546 166.341 109.559 166.624 109.696 167.654C109.99 169.856 111.31 173.894 111.31 173.894C111.31 173.894 112.093 172.265 112.822 171.162C113.18 170.622 113.396 170.362 113.98 169.784C116.936 166.868 121.979 162.36 127.232 157.827L129.091 156.229C133.126 152.775 137.154 149.414 140.336 146.846C141.164 146.178 141.473 145.731 141.657 144.463C142.569 138.216 142.834 127.003 142.284 118.844C142.179 117.303 141.678 115.814 140.808 114.535C138.812 111.593 136.425 108.808 132.806 105.231C132.29 104.718 131.938 104.063 131.806 103.348C130.75 97.7312 128.393 87.459 128.393 87.459H128.393Z" fill="white"/>
<path fill-rule="evenodd" clip-rule="evenodd" d="M85.7806 91.5479C85.7806 91.5479 86.5161 93.9241 87.2254 96.5045L87.4734 97.4202C87.9215 99.1016 88.321 100.762 88.4657 101.812C88.6043 102.822 88.5809 103.095 88.2204 104.063C87.3464 106.382 85.7381 110.112 84.0224 113.925L83.2823 115.56C81.1773 120.186 79.046 124.656 78.0111 126.59C77.5014 127.543 77.0215 128.165 76.0618 129.137C73.8715 131.36 69.6785 135.562 67.083 137.913C66.1403 138.769 65.8865 139.499 65.6946 140.605C65.3853 142.381 65.0782 145.413 64.9929 146.979C64.9183 148.356 65.1422 149.001 65.9121 150.364C70.4868 158.503 85.7593 177.226 90.11 181.158C90.4257 181.443 90.656 181.634 91.3214 182.075C91.9612 182.5 94.047 183.849 94.047 183.849C94.1302 183.907 94.2006 183.983 94.2539 184.07L95.0089 185.396C95.0089 185.396 94.9384 185.361 94.8111 185.298L94.4851 185.136C94.2228 185.006 93.8761 184.834 93.4777 184.636L92.5082 184.152C91.0219 183.408 89.2501 182.513 88.3185 182.013C87.9347 181.807 87.5742 181.564 87.2394 181.285C82.1443 177.064 66.5306 158.841 61.9389 151.232C60.7936 149.332 60.6763 148.718 60.8298 146.92C61.1178 143.573 61.5635 139.364 61.9538 137.52C62.1905 136.407 62.4358 135.754 63.291 134.771C66.1649 131.471 69.6704 127.115 73.0863 122.646L74.287 121.065C79.4638 114.209 84.2325 107.346 86.0131 103.85C86.4204 103.054 86.4545 102.778 86.4631 102.026C86.4865 99.8478 85.7891 95.6053 85.6057 94.5329C85.578 94.3648 85.5694 94.1946 85.5843 94.0244L85.7806 91.5479Z" fill="white"/>
<path fill-rule="evenodd" clip-rule="evenodd" d="M99.7392 118.516C99.7392 118.516 100.328 121.999 100.507 123.009C100.607 123.582 100.629 123.735 100.484 124.296C100.013 126.103 97.8401 135.623 96.1004 145.368L95.8297 146.908C95.1189 151.012 94.505 155.087 94.1473 158.573C93.9447 160.554 94.0108 161.028 94.5354 162.785C96.0219 167.751 101.52 180.726 102.576 183.092C102.693 183.353 102.763 183.628 102.798 183.911L103.194 186.97C101.433 184.317 91.861 166.77 88.101 157.054C87.6574 155.909 87.5721 155.345 88.0626 153.241C90.6773 142.077 97.7516 123.107 99.7393 118.516H99.7392Z" fill="white"/>
</svg>
