<svg xmlns="http://www.w3.org/2000/svg" xmlns:xlink="http://www.w3.org/1999/xlink" width="150" zoomAndPan="magnify" viewBox="0 0 112.5 112.499997" height="150" preserveAspectRatio="xMidYMid meet" version="1.0"><defs><clipPath id="id1"><path d="M 98 38 L 112.003906 38 L 112.003906 60 L 98 60 Z M 98 38 " clip-rule="nonzero"/></clipPath><clipPath id="id2"><path d="M 0 0 L 112.003906 0 L 112.003906 112.003906 L 0 112.003906 Z M 0 0 " clip-rule="nonzero"/></clipPath></defs><path fill="rgb(88.62915%, 90.589905%, 96.469116%)" d="M 81.523438 94.292969 L 65.21875 110.597656 L 1.8125 110.597656 L 1.8125 1.902344 L 81.523438 1.902344 Z M 81.523438 94.292969 " fill-opacity="1" fill-rule="nonzero"/><path fill="rgb(94.898987%, 94.898987%, 94.898987%)" d="M 1.8125 1.902344 L 76.085938 1.902344 L 76.085938 90.671875 L 1.8125 90.671875 Z M 1.8125 1.902344 " fill-opacity="1" fill-rule="nonzero"/><path fill="rgb(30.198669%, 54.899597%, 15.689087%)" d="M 9.058594 39.945312 L 23.550781 39.945312 L 23.550781 54.4375 L 9.058594 54.4375 Z M 9.058594 39.945312 " fill-opacity="1" fill-rule="nonzero"/><path fill="rgb(30.198669%, 54.899597%, 15.689087%)" d="M 9.058594 65.308594 L 23.550781 65.308594 L 23.550781 79.800781 L 9.058594 79.800781 Z M 9.058594 65.308594 " fill-opacity="1" fill-rule="nonzero"/><path fill="rgb(78.42865%, 80.389404%, 92.939758%)" d="M 65.21875 110.597656 L 65.21875 94.292969 L 81.523438 94.292969 " fill-opacity="1" fill-rule="nonzero"/><path fill="rgb(30.198669%, 54.899597%, 15.689087%)" d="M 9.058594 14.582031 L 23.550781 14.582031 L 23.550781 29.074219 L 9.058594 29.074219 Z M 9.058594 14.582031 " fill-opacity="1" fill-rule="nonzero"/><path fill="rgb(33.329773%, 60.778809%, 17.649841%)" d="M 9.058594 14.582031 L 19.925781 14.582031 L 19.925781 25.453125 L 9.058594 25.453125 Z M 9.058594 14.582031 " fill-opacity="1" fill-rule="nonzero"/><path fill="rgb(33.329773%, 60.778809%, 17.649841%)" d="M 9.058594 39.945312 L 19.925781 39.945312 L 19.925781 50.816406 L 9.058594 50.816406 Z M 9.058594 39.945312 " fill-opacity="1" fill-rule="nonzero"/><path fill="rgb(33.329773%, 60.778809%, 17.649841%)" d="M 9.058594 65.308594 L 19.925781 65.308594 L 19.925781 76.175781 L 9.058594 76.175781 Z M 9.058594 65.308594 " fill-opacity="1" fill-rule="nonzero"/><path fill="rgb(27.839661%, 27.839661%, 27.839661%)" d="M 16.304688 25.453125 C 15.839844 25.453125 15.375 25.273438 15.023438 24.921875 L 11.398438 21.300781 L 13.960938 18.738281 L 16.304688 21.078125 L 27.703125 9.679688 L 30.265625 12.242188 L 17.585938 24.921875 C 17.230469 25.273438 16.769531 25.453125 16.304688 25.453125 Z M 16.304688 25.453125 " fill-opacity="1" fill-rule="nonzero"/><path fill="rgb(27.839661%, 27.839661%, 27.839661%)" d="M 16.304688 50.816406 C 15.839844 50.816406 15.375 50.636719 15.023438 50.285156 L 11.398438 46.660156 L 13.960938 44.101562 L 16.304688 46.441406 L 27.703125 35.042969 L 30.265625 37.601562 L 17.585938 50.285156 C 17.230469 50.636719 16.769531 50.816406 16.304688 50.816406 Z M 16.304688 50.816406 " fill-opacity="1" fill-rule="nonzero"/><path fill="rgb(78.42865%, 80.389404%, 92.939758%)" d="M 28.984375 49.003906 L 76.085938 49.003906 L 76.085938 52.625 L 28.984375 52.625 Z M 28.984375 49.003906 " fill-opacity="1" fill-rule="nonzero"/><path fill="rgb(78.42865%, 80.389404%, 92.939758%)" d="M 39.855469 41.757812 L 65.21875 41.757812 L 65.21875 45.378906 L 39.855469 45.378906 Z M 39.855469 41.757812 " fill-opacity="1" fill-rule="nonzero"/><path fill="rgb(78.42865%, 80.389404%, 92.939758%)" d="M 68.839844 41.757812 L 76.085938 41.757812 L 76.085938 45.378906 L 68.839844 45.378906 Z M 68.839844 41.757812 " fill-opacity="1" fill-rule="nonzero"/><path fill="rgb(27.839661%, 27.839661%, 27.839661%)" d="M 16.304688 76.175781 C 15.839844 76.175781 15.375 76 15.023438 75.648438 L 11.398438 72.023438 L 13.960938 69.460938 L 16.304688 71.804688 L 27.703125 60.402344 L 30.265625 62.964844 L 17.585938 75.648438 C 17.230469 76 16.769531 76.175781 16.304688 76.175781 Z M 16.304688 76.175781 " fill-opacity="1" fill-rule="nonzero"/><path fill="rgb(78.42865%, 80.389404%, 92.939758%)" d="M 28.984375 74.367188 L 63.40625 74.367188 L 63.40625 77.988281 L 28.984375 77.988281 Z M 28.984375 74.367188 " fill-opacity="1" fill-rule="nonzero"/><path fill="rgb(78.42865%, 80.389404%, 92.939758%)" d="M 39.855469 67.121094 L 68.839844 67.121094 L 68.839844 70.742188 L 39.855469 70.742188 Z M 39.855469 67.121094 " fill-opacity="1" fill-rule="nonzero"/><path fill="rgb(78.42865%, 80.389404%, 92.939758%)" d="M 28.984375 23.640625 L 76.085938 23.640625 L 76.085938 27.265625 L 28.984375 27.265625 Z M 28.984375 23.640625 " fill-opacity="1" fill-rule="nonzero"/><path fill="rgb(78.42865%, 80.389404%, 92.939758%)" d="M 39.855469 16.394531 L 65.21875 16.394531 L 65.21875 20.019531 L 39.855469 20.019531 Z M 39.855469 16.394531 " fill-opacity="1" fill-rule="nonzero"/><path fill="rgb(78.42865%, 80.389404%, 92.939758%)" d="M 68.839844 16.394531 L 76.085938 16.394531 L 76.085938 20.019531 L 68.839844 20.019531 Z M 68.839844 16.394531 " fill-opacity="1" fill-rule="nonzero"/><path fill="rgb(27.839661%, 27.839661%, 27.839661%)" d="M 57.972656 76.179688 L 96.015625 38.132812 L 103.261719 45.382812 L 65.21875 83.425781 Z M 57.972656 76.179688 " fill-opacity="1" fill-rule="nonzero"/><path fill="rgb(36.859131%, 36.859131%, 36.859131%)" d="M 61.59375 72.554688 L 62.65625 73.617188 C 64.070312 75.03125 66.363281 75.03125 67.777344 73.617188 L 99.636719 41.757812 L 96.015625 38.132812 Z M 61.59375 72.554688 " fill-opacity="1" fill-rule="nonzero"/><path fill="rgb(40.779114%, 40.779114%, 40.779114%)" d="M 65.21875 83.425781 L 54.347656 87.046875 L 57.972656 76.175781 Z M 65.21875 83.425781 " fill-opacity="1" fill-rule="nonzero"/><path fill="rgb(36.859131%, 52.938843%, 79.219055%)" d="M 96.921875 39.039062 L 105.074219 30.886719 L 110.507812 36.324219 L 102.355469 44.476562 " fill-opacity="1" fill-rule="nonzero"/><path fill="rgb(47.059631%, 62.748718%, 83.139038%)" d="M 99.636719 36.324219 L 101.074219 37.757812 C 101.78125 38.46875 102.929688 38.46875 103.636719 37.757812 L 107.789062 33.605469 L 105.074219 30.886719 Z M 99.636719 36.324219 " fill-opacity="1" fill-rule="nonzero"/><g clip-path="url(#id1)"><path fill="rgb(57.649231%, 74.508667%, 89.7995%)" d="M 100.917969 59.34375 L 98.355469 56.78125 L 108.695312 46.441406 L 108.695312 44.320312 L 105.601562 41.226562 L 108.164062 38.664062 L 111.789062 42.289062 C 112.128906 42.625 112.320312 43.089844 112.320312 43.570312 L 112.320312 47.191406 C 112.320312 47.671875 112.128906 48.132812 111.789062 48.472656 Z M 100.917969 59.34375 " fill-opacity="1" fill-rule="nonzero"/></g><path fill="rgb(0%, 0%, 0%)" d="M 9.058594 30.886719 L 23.550781 30.886719 C 24.550781 30.886719 25.363281 30.074219 25.363281 29.074219 L 25.363281 17.144531 L 30.265625 12.242188 L 27.703125 9.679688 L 24.382812 13 C 24.128906 12.867188 23.855469 12.773438 23.550781 12.773438 L 9.058594 12.773438 C 8.054688 12.773438 7.246094 13.582031 7.246094 14.582031 L 7.246094 29.074219 C 7.246094 30.074219 8.054688 30.886719 9.058594 30.886719 Z M 10.871094 16.394531 L 20.988281 16.394531 L 16.304688 21.078125 L 13.960938 18.738281 L 11.398438 21.300781 L 15.023438 24.921875 C 15.375 25.273438 15.839844 25.453125 16.304688 25.453125 C 16.769531 25.453125 17.230469 25.273438 17.585938 24.921875 L 21.738281 20.769531 L 21.738281 27.265625 L 10.871094 27.265625 Z M 10.871094 16.394531 " fill-opacity="1" fill-rule="nonzero"/><path fill="rgb(0%, 0%, 0%)" d="M 9.058594 56.25 L 23.550781 56.25 C 24.550781 56.25 25.363281 55.4375 25.363281 54.4375 L 25.363281 42.507812 L 30.265625 37.601562 L 27.703125 35.042969 L 24.382812 38.363281 C 24.128906 38.226562 23.855469 38.132812 23.550781 38.132812 L 9.058594 38.132812 C 8.054688 38.132812 7.246094 38.945312 7.246094 39.945312 L 7.246094 54.4375 C 7.246094 55.4375 8.054688 56.25 9.058594 56.25 Z M 10.871094 41.757812 L 20.988281 41.757812 L 16.304688 46.441406 L 13.960938 44.101562 L 11.398438 46.660156 L 15.023438 50.285156 C 15.375 50.636719 15.839844 50.816406 16.304688 50.816406 C 16.769531 50.816406 17.230469 50.636719 17.585938 50.285156 L 21.738281 46.128906 L 21.738281 52.625 L 10.871094 52.625 Z M 10.871094 41.757812 " fill-opacity="1" fill-rule="nonzero"/><path fill="rgb(0%, 0%, 0%)" d="M 28.984375 49.003906 L 76.085938 49.003906 L 76.085938 52.625 L 28.984375 52.625 Z M 28.984375 49.003906 " fill-opacity="1" fill-rule="nonzero"/><path fill="rgb(0%, 0%, 0%)" d="M 39.855469 41.757812 L 65.21875 41.757812 L 65.21875 45.378906 L 39.855469 45.378906 Z M 39.855469 41.757812 " fill-opacity="1" fill-rule="nonzero"/><path fill="rgb(0%, 0%, 0%)" d="M 68.839844 41.757812 L 76.085938 41.757812 L 76.085938 45.378906 L 68.839844 45.378906 Z M 68.839844 41.757812 " fill-opacity="1" fill-rule="nonzero"/><path fill="rgb(0%, 0%, 0%)" d="M 30.265625 62.964844 L 27.703125 60.402344 L 24.382812 63.726562 C 24.132812 63.589844 23.855469 63.496094 23.550781 63.496094 L 9.058594 63.496094 C 8.054688 63.496094 7.246094 64.304688 7.246094 65.308594 L 7.246094 79.800781 C 7.246094 80.800781 8.054688 81.613281 9.058594 81.613281 L 23.550781 81.613281 C 24.550781 81.613281 25.363281 80.800781 25.363281 79.800781 L 25.363281 67.871094 Z M 21.738281 77.988281 L 10.871094 77.988281 L 10.871094 67.121094 L 20.988281 67.121094 L 16.304688 71.804688 L 13.960938 69.460938 L 11.398438 72.023438 L 15.023438 75.648438 C 15.375 76 15.839844 76.175781 16.304688 76.175781 C 16.769531 76.175781 17.230469 76 17.585938 75.648438 L 21.738281 71.492188 Z M 21.738281 77.988281 " fill-opacity="1" fill-rule="nonzero"/><path fill="rgb(0%, 0%, 0%)" d="M 28.984375 23.640625 L 76.085938 23.640625 L 76.085938 27.265625 L 28.984375 27.265625 Z M 28.984375 23.640625 " fill-opacity="1" fill-rule="nonzero"/><path fill="rgb(0%, 0%, 0%)" d="M 39.855469 16.394531 L 65.21875 16.394531 L 65.21875 20.019531 L 39.855469 20.019531 Z M 39.855469 16.394531 " fill-opacity="1" fill-rule="nonzero"/><path fill="rgb(0%, 0%, 0%)" d="M 68.839844 16.394531 L 76.085938 16.394531 L 76.085938 20.019531 L 68.839844 20.019531 Z M 68.839844 16.394531 " fill-opacity="1" fill-rule="nonzero"/><g clip-path="url(#id2)"><path fill="rgb(0%, 0%, 0%)" d="M 109.445312 39.945312 L 111.789062 37.601562 C 112.496094 36.894531 112.496094 35.75 111.789062 35.042969 L 106.351562 29.605469 C 105.644531 28.898438 104.5 28.898438 103.792969 29.605469 L 96.84375 36.554688 C 96.160156 36.195312 95.308594 36.277344 94.734375 36.851562 L 83.332031 48.253906 L 83.332031 1.902344 C 83.332031 0.902344 82.523438 0.0898438 81.523438 0.0898438 L 1.8125 0.0898438 C 0.808594 0.0898438 0 0.902344 0 1.902344 L 0 110.597656 C 0 111.601562 0.808594 112.410156 1.8125 112.410156 L 65.21875 112.410156 C 65.699219 112.410156 66.160156 112.21875 66.5 111.878906 L 82.800781 95.574219 C 83.144531 95.234375 83.332031 94.773438 83.332031 94.292969 L 83.332031 67.871094 L 104.542969 46.660156 C 105.117188 46.085938 105.199219 45.234375 104.839844 44.550781 L 106.882812 42.507812 L 108.695312 44.320312 L 108.695312 46.441406 L 98.355469 56.78125 L 100.917969 59.34375 L 111.789062 48.472656 C 112.128906 48.132812 112.320312 47.671875 112.320312 47.191406 L 112.320312 43.570312 C 112.320312 43.089844 112.128906 42.625 111.789062 42.289062 Z M 105.074219 33.449219 L 107.945312 36.324219 L 102.355469 41.914062 L 99.480469 39.039062 Z M 67.027344 106.226562 L 67.027344 96.105469 L 77.148438 96.105469 Z M 79.710938 92.480469 L 65.21875 92.480469 C 64.214844 92.480469 63.40625 93.292969 63.40625 94.292969 L 63.40625 108.785156 L 3.625 108.785156 L 3.625 3.714844 L 79.710938 3.714844 L 79.710938 51.875 L 64.46875 67.121094 L 39.855469 67.121094 L 39.855469 70.742188 L 60.84375 70.742188 L 57.222656 74.367188 L 28.984375 74.367188 L 28.984375 77.988281 L 55.457031 77.988281 L 52.628906 86.476562 C 52.414062 87.125 52.582031 87.84375 53.066406 88.328125 C 53.410156 88.671875 53.875 88.859375 54.347656 88.859375 C 54.539062 88.859375 54.734375 88.828125 54.921875 88.765625 L 65.789062 85.140625 C 66.054688 85.050781 66.300781 84.902344 66.5 84.703125 L 79.710938 71.492188 Z M 58.761719 79.53125 L 61.863281 82.632812 L 57.210938 84.183594 Z M 65.21875 80.863281 L 60.53125 76.175781 L 96.015625 40.695312 L 100.699219 45.378906 Z M 65.21875 80.863281 " fill-opacity="1" fill-rule="nonzero"/></g></svg>