<svg xmlns="http://www.w3.org/2000/svg" xmlns:xlink="http://www.w3.org/1999/xlink" width="150" zoomAndPan="magnify" viewBox="0 0 112.5 98.999996" height="132" preserveAspectRatio="xMidYMid meet" version="1.0"><defs><clipPath id="id1"><path d="M 0 0.429688 L 112.003906 0.429688 L 112.003906 98.679688 L 0 98.679688 Z M 0 0.429688 " clip-rule="nonzero"/></clipPath></defs><g clip-path="url(#id1)"><path fill="rgb(13.729858%, 12.159729%, 12.548828%)" d="M 53.574219 72.460938 L 42.789062 67.085938 L 48.183594 61.714844 Z M 94.976562 3.039062 C 94.972656 3.113281 94.964844 3.1875 94.964844 3.265625 L 94.964844 17.5625 L 109.46875 17.5625 L 109.46875 96.167969 L 41.125 96.167969 L 41.125 68.972656 L 41.871094 69.714844 L 42.058594 69.527344 L 52.449219 74.703125 C 52.808594 74.882812 53.191406 74.96875 53.574219 74.96875 C 53.792969 74.96875 54.011719 74.9375 54.222656 74.882812 L 55.578125 76.230469 C 55.824219 76.476562 56.144531 76.597656 56.46875 76.597656 C 56.789062 76.597656 57.109375 76.476562 57.355469 76.230469 C 57.847656 75.742188 57.847656 74.945312 57.355469 74.457031 L 56 73.105469 C 56.152344 72.527344 56.105469 71.898438 55.824219 71.339844 L 50.628906 60.984375 L 50.820312 60.792969 L 49.039062 59.019531 L 41.125 51.132812 L 41.125 3.039062 Z M 97.480469 15.054688 L 97.480469 3.265625 C 97.480469 3.066406 97.644531 2.9375 97.8125 2.9375 C 97.894531 2.9375 97.976562 2.964844 98.042969 3.035156 L 109.695312 14.648438 C 109.847656 14.796875 109.738281 15.054688 109.527344 15.054688 Z M 10.097656 34.503906 L 15.492188 29.128906 L 46.402344 59.9375 L 41.011719 65.3125 Z M 3.886719 24.25 L 5.160156 22.980469 C 5.734375 22.410156 6.488281 22.121094 7.242188 22.121094 C 7.992188 22.121094 8.746094 22.410156 9.320312 22.980469 L 13.710938 27.355469 L 8.320312 32.730469 L 3.886719 28.3125 C 2.761719 27.191406 2.761719 25.371094 3.886719 24.25 Z M 111.476562 12.875 L 99.824219 1.257812 C 99.285156 0.722656 98.570312 0.429688 97.8125 0.429688 C 97.554688 0.429688 97.304688 0.464844 97.066406 0.53125 L 38.609375 0.53125 L 38.609375 48.625 L 15.492188 25.582031 L 13.710938 23.808594 L 11.101562 21.207031 C 10.070312 20.179688 8.699219 19.613281 7.242188 19.613281 C 5.78125 19.613281 4.414062 20.179688 3.382812 21.207031 L 2.109375 22.476562 C 0.00390625 24.574219 0.00390625 27.988281 2.109375 30.085938 L 4.761719 32.730469 L 6.539062 34.503906 L 6.621094 34.582031 L 2.992188 38.199219 C 2.5 38.6875 2.5 39.480469 2.992188 39.96875 L 24.828125 61.730469 C 25.070312 61.976562 25.394531 62.097656 25.714844 62.097656 C 26.039062 62.097656 26.359375 61.976562 26.605469 61.730469 C 27.097656 61.242188 27.097656 60.449219 26.605469 59.957031 L 5.660156 39.082031 L 8.398438 36.355469 L 38.609375 66.464844 L 38.609375 98.675781 L 111.984375 98.675781 L 111.984375 16.039062 C 112.015625 15.980469 112.046875 15.925781 112.074219 15.867188 C 112.5 14.835938 112.265625 13.660156 111.476562 12.875 " fill-opacity="1" fill-rule="nonzero"/></g><path fill="rgb(13.729858%, 12.159729%, 12.548828%)" d="M 83.910156 75.832031 L 63.71875 75.832031 C 63.023438 75.832031 62.460938 76.390625 62.460938 77.085938 C 62.460938 77.777344 63.023438 78.339844 63.71875 78.339844 L 83.910156 78.339844 C 84.605469 78.339844 85.167969 77.777344 85.167969 77.085938 C 85.167969 76.390625 84.605469 75.832031 83.910156 75.832031 " fill-opacity="1" fill-rule="nonzero"/><path fill="rgb(13.729858%, 12.159729%, 12.548828%)" d="M 49.507812 24.625 L 69.699219 24.625 C 70.394531 24.625 70.960938 24.0625 70.960938 23.367188 C 70.960938 22.675781 70.394531 22.117188 69.699219 22.117188 L 49.507812 22.117188 C 48.8125 22.117188 48.25 22.675781 48.25 23.367188 C 48.25 24.0625 48.8125 24.625 49.507812 24.625 " fill-opacity="1" fill-rule="nonzero"/><path fill="rgb(13.729858%, 12.159729%, 12.548828%)" d="M 49.507812 33.535156 L 98.171875 33.535156 C 98.867188 33.535156 99.429688 32.976562 99.429688 32.28125 C 99.429688 31.589844 98.867188 31.027344 98.171875 31.027344 L 49.507812 31.027344 C 48.8125 31.027344 48.25 31.589844 48.25 32.28125 C 48.25 32.976562 48.8125 33.535156 49.507812 33.535156 " fill-opacity="1" fill-rule="nonzero"/><path fill="rgb(13.729858%, 12.159729%, 12.548828%)" d="M 49.480469 41.839844 L 98.148438 41.839844 C 98.84375 41.839844 99.40625 41.277344 99.40625 40.585938 C 99.40625 39.894531 98.84375 39.332031 98.148438 39.332031 L 49.480469 39.332031 C 48.789062 39.332031 48.222656 39.894531 48.222656 40.585938 C 48.222656 41.277344 48.789062 41.839844 49.480469 41.839844 " fill-opacity="1" fill-rule="nonzero"/><path fill="rgb(13.729858%, 12.159729%, 12.548828%)" d="M 49.457031 50.144531 L 98.121094 50.144531 C 98.816406 50.144531 99.378906 49.582031 99.378906 48.890625 C 99.378906 48.195312 98.816406 47.636719 98.121094 47.636719 L 49.457031 47.636719 C 48.761719 47.636719 48.199219 48.195312 48.199219 48.890625 C 48.199219 49.582031 48.761719 50.144531 49.457031 50.144531 " fill-opacity="1" fill-rule="nonzero"/></svg>